<svg width="24" height="24" viewBox="0 0 24 24" fill="none" xmlns="http://www.w3.org/2000/svg">
<g clip-path="url(#clip0_1_2)">
<path d="M7.8868 2.63304C8.21436 2.48652 8.51246 2.62367 8.67586 2.72875C8.84925 2.84033 9.02383 3.01083 9.1993 3.20336L9.49618 3.54613L9.49813 3.54906L9.83993 3.97289L9.84579 3.97972L9.84676 3.98265L10.1427 4.36546C10.2285 4.47488 10.3024 4.56768 10.3682 4.64574C10.5034 4.80589 10.5802 4.87719 10.6241 4.90941L10.628 4.91234C10.6317 4.91187 10.6365 4.91218 10.6417 4.91136C10.6683 4.90714 10.708 4.89888 10.7696 4.88402L10.7979 4.87718H10.8048C11.5418 4.70704 12.1741 4.71166 13.0079 4.87718L13.1759 4.90257C13.2113 4.90675 13.2302 4.90736 13.2432 4.90648H13.2452C13.2487 4.90483 13.2572 4.90072 13.2716 4.89086C13.3209 4.85693 13.4019 4.78365 13.5479 4.62132C13.6906 4.46276 13.8708 4.2477 14.1173 3.94847L14.1212 3.94359C14.4122 3.59801 14.7075 3.28347 14.9493 3.05589C15.0686 2.94362 15.1861 2.84264 15.2901 2.76781C15.3388 2.7328 15.4042 2.68924 15.4766 2.6555C15.5125 2.63882 15.5659 2.61637 15.6309 2.60277C15.6607 2.59661 15.7014 2.59143 15.7481 2.59105L15.7647 2.57347L15.9024 2.60765C15.9082 2.6091 15.9129 2.61222 15.9171 2.61351H15.92C15.9211 2.61385 15.922 2.61419 15.9229 2.61449L15.9425 2.62035L16.3263 2.74828L16.2393 2.83421C16.2631 2.86447 16.2808 2.89033 16.2911 2.90746L16.3526 3.02855C16.3695 3.06856 16.3834 3.1075 16.3946 3.14281C16.44 3.28559 16.476 3.46621 16.5069 3.66527C16.5306 3.81765 16.5523 3.99363 16.5733 4.19066L16.6329 4.84496V4.84691L16.6671 5.34789V5.34984C16.7719 7.11405 16.876 7.57637 17.172 8.1682C17.3084 8.44105 17.4281 8.74396 17.5147 9.01586C17.5886 9.24791 17.6522 9.50834 17.6632 9.72093H20.3585C21.2526 9.72093 21.9409 9.72309 22.4503 9.74242C22.932 9.76072 23.3417 9.79436 23.6153 9.89867C23.7558 9.9523 23.9769 10.0676 24.086 10.3205C24.199 10.5828 24.12 10.8242 24.0577 10.9563C23.9934 11.0923 23.8977 11.2193 23.8106 11.3244C23.7195 11.4345 23.6075 11.5542 23.4942 11.676C23.273 11.9162 23.0639 12.3417 22.9317 12.8723C22.8029 13.3901 22.7616 13.9533 22.8272 14.4407L23.0382 15.7629L22.7882 15.7991L22.4864 15.843L21.627 15.9651L21.6163 15.967C21.1434 16.0252 20.6253 16.2263 20.1651 16.5227C19.7057 16.8186 19.3415 17.1835 19.1417 17.5383L19.1427 17.5393L19.1348 17.553C18.9941 17.7969 18.8407 18.0196 18.6739 18.1799C18.5324 18.3158 18.226 18.552 17.835 18.4348L17.8155 18.4289L17.7999 18.4231C17.6988 18.3852 17.1866 18.2111 16.753 18.0383L16.6153 17.9905C15.9982 17.7945 15.4192 17.8798 14.88 18.2278C14.2824 18.6135 13.7016 19.3467 13.2276 20.469L13.2257 20.4739C13.0541 20.8711 12.8747 21.2392 12.7208 21.5139C12.6452 21.6487 12.5675 21.7755 12.4942 21.8743C12.4586 21.9222 12.4115 21.9807 12.3556 22.0325C12.3266 22.0591 12.2836 22.0952 12.2276 22.1272C12.1759 22.1567 12.0718 22.2071 11.9327 22.2073C11.7158 22.2073 11.5699 22.0881 11.5304 22.0549C11.4691 22.0036 11.4213 21.9455 11.3878 21.9026C11.316 21.8105 11.2445 21.6956 11.1788 21.5764C11.0469 21.337 10.9024 21.0189 10.7735 20.6711C10.4041 19.7564 10.1613 19.2518 9.90731 18.9172C9.67615 18.613 9.42036 18.4291 8.95516 18.2161L8.95223 18.2151L8.94442 18.2121C8.39937 17.9522 8.06026 17.8565 7.76961 17.8518C7.48549 17.8473 7.18242 17.9285 6.70614 18.1584L6.59872 18.2102C6.36754 18.3244 6.15461 18.4141 5.97079 18.4543C5.86711 18.477 5.7138 18.4988 5.55184 18.4573C5.35873 18.4077 5.18407 18.2732 5.09969 18.0618L5.06356 17.9934C5.03506 17.9428 4.99502 17.8761 4.94637 17.7991C4.84831 17.6438 4.72009 17.4535 4.58797 17.2717L4.38875 17.0237C4.18717 16.7932 3.97481 16.6133 3.72957 16.4651C3.3977 16.2646 2.98149 16.1059 2.40438 15.9739L1.54696 15.7815L1.31844 15.7317L1.12801 15.6887L1.08211 13.8752C1.0648 13.1481 1.01287 12.7239 0.903403 12.4006C0.800088 12.0956 0.632028 11.842 0.300864 11.4866C0.146917 11.3296 0.0187853 11.1509 -0.0663235 10.9807C-0.109648 10.894 -0.150669 10.7921 -0.172769 10.6848C-0.190919 10.5963 -0.216697 10.4084 -0.121011 10.217L-0.119058 10.2131L-0.108316 10.1926L-0.100503 10.178L-0.0917141 10.1653L-0.0780423 10.1457L-0.0770657 10.1438C-0.00106081 10.0374 0.0933384 9.98116 0.139731 9.95628C0.192209 9.92818 0.243543 9.90898 0.285239 9.89574C0.366979 9.86983 0.458168 9.85246 0.542075 9.8391C0.717782 9.81115 0.951974 9.78855 1.23348 9.77171C1.79926 9.73791 2.60956 9.72094 3.64657 9.72093H6.24129C6.25197 9.63353 6.27094 9.54683 6.29012 9.47191C6.32155 9.34926 6.36487 9.21235 6.4161 9.07054C6.51829 8.78774 6.65948 8.46273 6.8204 8.15941C7.05106 7.69767 7.1503 7.4637 7.20711 7.1555C7.26853 6.82198 7.28328 6.38299 7.28329 5.50609C7.28329 4.98988 7.29629 4.48555 7.31649 4.08812C7.3266 3.88937 7.3393 3.7134 7.35262 3.57445C7.36295 3.46684 7.37875 3.32216 7.41122 3.2141L7.41805 3.18675L7.42586 3.1682L7.42879 3.16136C7.48579 3.0178 7.60881 2.75749 7.8868 2.63304ZM9.08407 6.31273C9.08405 6.9202 9.06616 7.37626 9.02157 7.70824C9.0104 7.79127 8.9974 7.87171 8.98055 7.94847L8.91903 8.16722C8.87003 8.30389 8.7914 8.45582 8.65633 8.57738L8.6495 8.58226C8.64491 8.58809 8.63699 8.59951 8.62508 8.61742C8.59511 8.66256 8.55649 8.73019 8.5118 8.81761C8.42452 8.98839 8.33042 9.20653 8.25106 9.42699C8.13022 9.79368 8.0621 10.0745 8.045 10.345C8.02834 10.6097 8.05853 10.8912 8.16415 11.2532C8.38435 12.0078 8.90944 13.0462 9.94149 14.9075L10.6729 16.2375C11.2358 17.2789 11.7236 18.2245 11.9708 18.7453L12.3341 18.0276C12.8303 17.0352 13.7635 15.3117 14.377 14.2073L14.379 14.2034C15.1316 12.8752 15.4967 12.2103 15.6827 11.7366C15.849 11.3127 15.8673 11.0604 15.8673 10.5168C15.8673 9.9132 15.7688 9.50841 15.4581 8.90062L15.3126 8.62132L15.3097 8.61449C15.1696 8.32484 15.0676 8.04417 14.9932 7.71605C14.8969 7.29088 14.8517 6.80016 14.8165 6.13109L14.8116 6.05785C14.7391 6.15329 14.6733 6.23971 14.6114 6.31468C14.4972 6.453 14.3769 6.58308 14.2452 6.68187C14.1021 6.78903 13.9341 6.868 13.7345 6.88402C13.5515 6.89859 13.3896 6.85543 13.2735 6.81859C13.1943 6.79413 13.0243 6.76569 12.7696 6.74437C12.5262 6.72401 12.2398 6.71314 11.9503 6.71312C11.6606 6.71312 11.3736 6.724 11.13 6.74437C10.8752 6.76569 10.7044 6.79483 10.6251 6.81957L10.4806 6.86449L10.4737 6.85765C10.3881 6.87725 10.2903 6.89356 10.1856 6.8889C9.99077 6.88013 9.82078 6.81183 9.67293 6.70433C9.53919 6.60703 9.42512 6.47861 9.32235 6.34691C9.25016 6.25438 9.17318 6.14583 9.08895 6.02269C9.08713 6.11644 9.08407 6.21358 9.08407 6.31273ZM17.0382 13.1809C16.7069 13.8685 16.2487 14.7166 15.6837 15.675C15.5902 15.8386 15.5015 15.998 15.4171 16.1477C15.9597 16.0487 16.5477 16.0466 17.0616 16.1594C17.0749 15.7523 17.0715 15.0786 17.0577 13.9778L17.0382 13.1809ZM6.97665 13.3088C6.96527 14.2719 6.92229 15.3711 6.87508 15.9065L6.87411 15.9153L6.87313 15.9231L6.84872 16.1301C7.3625 16.0102 7.94625 16 8.49227 16.1067C8.34587 15.8415 8.18096 15.5462 8.00497 15.2395L8.00106 15.2336L7.43172 14.1946C7.25184 13.8589 7.10255 13.5684 6.97665 13.3088ZM18.7188 15.3137C18.9679 15.1136 19.2498 14.9267 19.5186 14.7717C19.7377 14.6454 19.9623 14.5328 20.172 14.4475C19.9231 14.1781 19.6088 13.8448 19.2647 13.4934L18.7188 12.9328V15.3137ZM4.60848 13.6077L4.6036 13.6135L4.60262 13.6145L4.60165 13.6135L3.79891 14.4651L4.10165 14.5481L4.07625 14.5725C4.23581 14.6408 4.39647 14.7226 4.54696 14.8108C4.76337 14.9377 4.98188 15.0894 5.17 15.2512C5.18516 14.8804 5.20401 14.4396 5.21688 13.97C5.22192 13.6058 5.22439 13.2608 5.22567 12.9553C5.03623 13.1533 4.82661 13.375 4.60848 13.6077ZM2.53231 11.5354L2.56356 11.6037L2.56747 11.6125C2.70719 11.9594 2.83288 12.4677 2.88973 12.9153H2.89266L2.90145 13.01C3.14677 12.7614 3.43737 12.4657 3.73934 12.1506L4.33993 11.5217H3.66415C3.24074 11.5217 2.84964 11.5278 2.53231 11.5354ZM19.6544 11.5276C19.8679 11.7545 20.11 12.0088 20.3556 12.261C20.6035 12.5156 20.8531 12.7669 21.0753 12.9875C21.0879 12.7429 21.1222 12.4866 21.17 12.2532C21.2213 12.003 21.2962 11.743 21.3907 11.5364C21.1009 11.5273 20.7452 11.5217 20.3585 11.5217C20.1078 11.5217 19.8697 11.5236 19.6544 11.5276ZM8.41708 8.47972C8.39252 8.51671 8.36736 8.56384 8.33797 8.61742C8.34362 8.62097 8.34848 8.62595 8.35458 8.62914C8.41834 8.66244 8.47687 8.65904 8.49911 8.65648C8.544 8.6513 8.57669 8.63375 8.58016 8.63207C8.59714 8.62376 8.60984 8.61489 8.61043 8.61449C8.61362 8.61233 8.61645 8.61118 8.61727 8.61058L8.61825 8.60863L8.46493 8.41332C8.4572 8.42227 8.44157 8.44287 8.41708 8.47972ZM15.9307 2.61644C15.9324 2.61702 15.9341 2.61793 15.9327 2.61742L15.92 2.61351L15.9181 2.61254L15.9307 2.61644Z" fill="#475259"/>
<circle cx="12.0074" cy="10.5079" r="2.01977" fill="#2EB6C7"/>
</g>
<defs>
<clipPath id="clip0_1_2">
<rect width="24" height="24" fill="white"/>
</clipPath>
</defs>
</svg>
